# xmcd
# 
# Track frame offsets:
#     182
#     11880
#     31217
#     44242
#     57230
#     80042
#     96995
#     112632
#     130117
#     142287
#     153982
#     166060
#     187852
#     208365
#     221115
#     241182
# 
# Disc length: 3387
# 
# Revision: 7
# Processed by: cddbd v1.5.2PL0 Copyright (c) Steve Scherf et al.
# Submitted via: fre:ac v1.0.31
# 
DISCID=e50d3910
DTITLE=Fleetwood Mac - Blue Horizon Box Disc 2
DYEAR=1999
DGENRE=Blues
TTITLE0=Stop Messin' Around (Take 4)
TTITLE1=I've Lost My Baby
TTITLE2=Rollin' Man
TTITLE3=Dust My Broom
TTITLE4=Love That Burns
TTITLE5=Doctor Brown
TTITLE6=Need Your Love Tonight
TTITLE7=If You Be My Baby
TTITLE8=Evenin' Boogie
TTITLE9=Lacy Poker Blues
TTITLE10=Coming Home
TTITLE11=Trying So Hard To Forget
TTITLE12=Stop Messin' Round (Take 1, Take 2, Take 3)
TTITLE13=Stop Messin' Round (Take 5)
TTITLE14=I Held My Baby Last Night
TTITLE15=Mystery Boogie
EXTD=
EXTT0=
EXTT1=
EXTT2=
EXTT3=
EXTT4=
EXTT5=
EXTT6=
EXTT7=
EXTT8=
EXTT9=
EXTT10=
EXTT11=
EXTT12=
EXTT13=
EXTT14=
EXTT15=
PLAYORDER=
